<svg xmlns="http://www.w3.org/2000/svg" width="1200" height="630" viewBox="0 0 1200 630" fill="none" role="img" aria-label="EnBauges.fr Open Graph">
  <defs>
    <linearGradient id="bg" x1="0" y1="0" x2="1200" y2="630" gradientUnits="userSpaceOnUse">
      <stop stop-color="#FAFAF5"/>
      <stop offset="1" stop-color="#F1F5F9"/>
    </linearGradient>
    <linearGradient id="ridge" x1="180" y1="460" x2="1040" y2="170" gradientUnits="userSpaceOnUse">
      <stop stop-color="#14532D"/>
      <stop offset="1" stop-color="#166534"/>
    </linearGradient>
  </defs>

  <rect width="1200" height="630" fill="url(#bg)"/>

  <g opacity="0.08" stroke="#0C0E10">
    <path d="M80 120 C260 70, 420 70, 600 120 C780 170, 940 170, 1120 120" stroke-width="3" fill="none"/>
    <path d="M80 170 C260 120, 420 120, 600 170 C780 220, 940 220, 1120 170" stroke-width="3" fill="none"/>
    <path d="M80 220 C260 170, 420 170, 600 220 C780 270, 940 270, 1120 220" stroke-width="3" fill="none"/>
  </g>

  <path d="M140 470 L320 310 L430 390 L560 260 L710 410 L860 300 L1060 440 L1060 520 L140 520 Z" fill="url(#ridge)"/>
  <path d="M190 520 C340 470, 420 470, 560 520 C700 570, 840 570, 1010 520" stroke="#0369A1" stroke-width="10" stroke-linecap="round" fill="none" opacity="0.85"/>

  <g>
    <rect x="120" y="120" width="64" height="64" rx="18" fill="#FAFAF5"/>
    <path d="M132 164 L148 136 L158 152 L170 132 L186 158 L186 176 L132 176 Z" fill="#14532D"/>
    <circle cx="154" cy="144" r="4" fill="#0C0E10" opacity="0.85"/>
  </g>

  <text x="210" y="162" font-family="ui-sans-serif, system-ui, -apple-system, Segoe UI, Roboto, Arial" font-size="44" font-weight="800" fill="#0C0E10">EnBauges.fr</text>
  <text x="210" y="206" font-family="ui-sans-serif, system-ui, -apple-system, Segoe UI, Roboto, Arial" font-size="24" font-weight="500" fill="#475569">Le tiers-lieu numérique du Massif des Bauges</text>

  <text x="120" y="270" font-family="ui-sans-serif, system-ui, -apple-system, Segoe UI, Roboto, Arial" font-size="34" font-weight="700" fill="#0C0E10">Ressources • Agenda • Tiers-lieux • Coworkings • Associations</text>
  <text x="120" y="314" font-family="ui-sans-serif, system-ui, -apple-system, Segoe UI, Roboto, Arial" font-size="22" font-weight="500" fill="#475569">Un collectif local ouvert qui fédère les initiatives du territoire.</text>
</svg>
